<svg width="35" height="35" viewBox="0 0 35 35" fill="none" xmlns="http://www.w3.org/2000/svg">
<path fill-rule="evenodd" clip-rule="evenodd" d="M17.3426 34.7043C7.77262 34.7043 0.0146484 26.9464 0.0146484 17.3764C0.0146484 7.80643 7.77262 0.0484619 17.3426 0.0484619C26.9126 0.0484619 34.6705 7.80643 34.6705 17.3764C34.6705 26.9464 26.9126 34.7043 17.3426 34.7043ZM24.5639 13.1493C25.3448 12.7221 25.6317 11.7427 25.2046 10.9616C24.7774 10.1806 23.798 9.89365 23.0171 10.3208C20.0694 11.9328 17.632 15.0438 15.9932 17.553C15.3876 18.4805 14.8702 19.3585 14.4563 20.1022C14.0701 19.7276 13.6877 19.4025 13.3457 19.132C12.8981 18.7782 12.4953 18.4991 12.2016 18.3068L11.6938 17.9913C10.9205 17.5503 9.93609 17.8196 9.49506 18.593C9.05412 19.3661 9.32325 20.3502 10.0961 20.7915L10.4351 21.0035C10.6653 21.1542 10.9879 21.3776 11.3462 21.661C12.0838 22.244 12.8796 23.0083 13.3805 23.8457C13.6878 24.3596 14.2548 24.6607 14.8527 24.6278C15.4503 24.5948 15.9807 24.2327 16.2297 23.6884L16.3881 23.3573C16.4973 23.1342 16.6607 22.808 16.8735 22.4061C17.2998 21.6007 17.9198 20.4989 18.6924 19.3158C20.2775 16.8888 22.3533 14.3581 24.5639 13.1493Z" fill="#0F75BC"/>
</svg>
