<svg width="64" height="61" viewBox="0 0 64 61" fill="none" xmlns="http://www.w3.org/2000/svg">
<path d="M0.810732 29.6573L0.5 29.6937L1.05465 34.4345L1.36539 34.3981L0.810732 29.6573Z" fill="#407BFF"/>
<path d="M1.5705 36.1601L1.25977 36.1964L1.53947 38.5871L1.85021 38.5508L1.5705 36.1601Z" fill="#407BFF"/>
<path d="M22.2842 19.9937L21.9147 18.9578C21.3909 17.4893 19.9224 16.5768 18.3738 16.7579L3.6574 18.4793C1.8215 18.6939 0.507553 20.3561 0.722182 22.192L4.9113 58.0055C5.05849 59.2643 6.19845 60.1656 7.45728 60.0184L60.1104 53.8601C61.3692 53.7129 62.2705 52.5729 62.1233 51.3141L58.5023 20.3546C58.3552 19.0957 57.2152 18.1944 55.9564 18.3416L25.3814 21.9176C24.0268 22.0759 22.7424 21.2781 22.2842 19.9937Z" fill="#407BFF"/>
<path d="M23.7577 4.41547L7.12109 7.73193L11.6902 30.652L28.3268 27.3356L23.7577 4.41547Z" fill="#407BFF"/>
<path opacity="0.7" d="M23.7577 4.41547L7.12109 7.73193L11.6902 30.652L28.3268 27.3356L23.7577 4.41547Z" fill="white"/>
<g opacity="0.4">
<path d="M21.534 9.93496L11.2857 11.9775C10.7887 12.0766 10.3055 11.7539 10.2064 11.2569C10.1072 10.7599 10.4299 10.2768 10.9269 10.1776L21.1752 8.13509C21.6722 8.03594 22.1554 8.35865 22.2546 8.85566C22.3537 9.35266 22.031 9.8358 21.534 9.93496Z" fill="#407BFF"/>
<path d="M22.2898 13.7249L12.0415 15.7674C11.5445 15.8665 11.0614 15.5438 10.9622 15.0468C10.8631 14.5498 11.1858 14.0667 11.6828 13.9675L21.9311 11.925C22.4281 11.8259 22.9113 12.1486 23.0104 12.6456C23.1093 13.1429 22.7869 13.626 22.2898 13.7249Z" fill="#407BFF"/>
<path d="M23.0447 17.515L12.7964 19.5575C12.2994 19.6566 11.8163 19.3339 11.7171 18.8369C11.618 18.3399 11.9407 17.8568 12.4377 17.7576L22.686 15.7151C23.183 15.616 23.6661 15.9387 23.7653 16.4357C23.8641 16.9327 23.5417 17.4158 23.0447 17.515Z" fill="#407BFF"/>
<path d="M23.7996 21.3046L13.5513 23.3472C13.0543 23.4463 12.5712 23.1236 12.472 22.6266C12.3729 22.1296 12.6956 21.6465 13.1926 21.5473L23.4409 19.5048C23.9379 19.4056 24.421 19.7283 24.5202 20.2253C24.619 20.7227 24.2966 21.2058 23.7996 21.3046Z" fill="#407BFF"/>
<path d="M21.7545 25.6529L14.3072 27.1371C13.8102 27.2363 13.327 26.9136 13.2279 26.4166C13.1287 25.9196 13.4514 25.4364 13.9484 25.3373L21.3958 23.853C21.8928 23.7539 22.3759 24.0766 22.4751 24.5736C22.5739 25.0706 22.2515 25.5538 21.7545 25.6529Z" fill="#407BFF"/>
</g>
<path d="M47.4632 -2.63129e-05L30.6553 2.30029L33.8244 25.4564L50.6323 23.1561L47.4632 -2.63129e-05Z" fill="#407BFF"/>
<path opacity="0.7" d="M47.4632 -2.63129e-05L30.6553 2.30029L33.8244 25.4564L50.6323 23.1561L47.4632 -2.63129e-05Z" fill="white"/>
<g opacity="0.4">
<path d="M44.908 5.3694L34.5547 6.7865C34.0528 6.85517 33.5899 6.50382 33.5213 6.00189C33.4526 5.49996 33.804 5.03714 34.3059 4.96847L44.6592 3.55136C45.1611 3.48269 45.6239 3.83404 45.6926 4.33597C45.7616 4.83821 45.4102 5.30073 44.908 5.3694Z" fill="#407BFF"/>
<path d="M45.4324 9.19813L35.0791 10.6152C34.5772 10.6839 34.1144 10.3325 34.0457 9.83062C33.977 9.32838 34.3284 8.86587 34.8303 8.7972L45.1836 7.3804C45.6855 7.31173 46.1484 7.66308 46.217 8.16501C46.2857 8.66664 45.9343 9.12946 45.4324 9.19813Z" fill="#407BFF"/>
<path d="M38.4552 14.0535L35.6025 14.444C35.1006 14.5127 34.6378 14.1613 34.5691 13.6594C34.5005 13.1571 34.8518 12.6946 35.3537 12.626L38.2064 12.2355C38.7083 12.1668 39.1712 12.5182 39.2398 13.0201C39.3085 13.5224 38.9575 13.9849 38.4552 14.0535Z" fill="#407BFF"/>
<path d="M43.9875 13.2965L41.1348 13.687C40.6328 13.7556 40.17 13.4043 40.1013 12.9024C40.0327 12.4004 40.384 11.9376 40.886 11.8689L43.7386 11.4785C44.2406 11.4098 44.7034 11.7612 44.7721 12.2631C44.8407 12.765 44.4894 13.2279 43.9875 13.2965Z" fill="#407BFF"/>
<path d="M46.4803 16.8558L36.127 18.2729C35.625 18.3416 35.1622 17.9903 35.0935 17.4883C35.0249 16.9861 35.3762 16.5236 35.8781 16.4549L46.2315 15.0378C46.7337 14.9691 47.1962 15.3205 47.2649 15.8224C47.3339 16.3244 46.9825 16.7869 46.4803 16.8558Z" fill="#407BFF"/>
<path d="M44.1741 21.0717L36.6504 22.1015C36.1485 22.1701 35.6856 21.8188 35.617 21.3168C35.5483 20.8149 35.8997 20.3521 36.4016 20.2834L43.9253 19.2537C44.4272 19.185 44.8901 19.5364 44.9587 20.0383C45.0277 20.5402 44.6763 21.0031 44.1741 21.0717Z" fill="#407BFF"/>
</g>
<path d="M31.5988 3.38098L14.6992 4.85345L16.7278 28.1358L33.6274 26.6633L31.5988 3.38098Z" fill="#407BFF"/>
<path opacity="0.8" d="M31.5988 3.38098L14.6992 4.85345L16.7278 28.1358L33.6274 26.6633L31.5988 3.38098Z" fill="white"/>
<g opacity="0.4">
<path d="M28.7884 8.62054L18.3781 9.52771C17.8734 9.57174 17.4284 9.19822 17.3844 8.69321C17.3404 8.18851 17.7139 7.74355 18.2189 7.69951L28.6292 6.79234C29.1339 6.74831 29.5788 7.12183 29.6229 7.62684C29.6666 8.13185 29.2931 8.5765 28.7884 8.62054Z" fill="#407BFF"/>
<path d="M29.1233 12.4706L18.713 13.3777C18.2083 13.4218 17.7634 13.0483 17.7193 12.5433C17.6753 12.0385 18.0488 11.5936 18.5538 11.5496L28.9641 10.6421C29.4688 10.598 29.9138 10.9716 29.9578 11.4766C30.0019 11.9816 29.6283 12.4265 29.1233 12.4706Z" fill="#407BFF"/>
<path d="M29.4593 16.3203L19.049 17.2275C18.5443 17.2715 18.0993 16.898 18.0553 16.393C18.0112 15.888 18.3848 15.4433 18.8898 15.3993L29.3001 14.4921C29.8048 14.4481 30.2497 14.8216 30.2938 15.3266C30.3378 15.8313 29.964 16.2763 29.4593 16.3203Z" fill="#407BFF"/>
<path d="M29.7952 20.1704L19.3849 21.0776C18.8799 21.1216 18.4353 20.7481 18.3912 20.2431C18.3472 19.7384 18.7207 19.2934 19.2257 19.2494L29.636 18.3422C30.1407 18.2982 30.5857 18.6717 30.6297 19.1767C30.6734 19.6814 30.2999 20.1264 29.7952 20.1704Z" fill="#407BFF"/>
<path d="M27.2849 24.2681L19.7199 24.9274C19.2152 24.9714 18.7702 24.5979 18.7262 24.0929C18.6821 23.5882 19.0557 23.1432 19.5607 23.0992L27.1257 22.4399C27.6304 22.3959 28.0753 22.7694 28.1194 23.2744C28.1631 23.7791 27.7896 24.2241 27.2849 24.2681Z" fill="#407BFF"/>
</g>
<path d="M52.1946 2.24447L35.251 3.06213L36.3775 26.4053L53.3211 25.5876L52.1946 2.24447Z" fill="#407BFF"/>
<path opacity="0.8" d="M52.1946 2.24447L35.251 3.06213L36.3775 26.4053L53.3211 25.5876L52.1946 2.24447Z" fill="white"/>
<g opacity="0.4">
<path d="M49.1847 7.37223L38.747 7.876C38.2407 7.90033 37.8106 7.50988 37.7862 7.00363C37.7619 6.49739 38.1524 6.06721 38.6583 6.04288L49.096 5.5391C49.6022 5.51478 50.0321 5.90524 50.0567 6.41148C50.0814 6.91741 49.6906 7.34759 49.1847 7.37223Z" fill="#407BFF"/>
<path d="M49.3712 11.2327L38.9335 11.7365C38.4273 11.7608 37.9974 11.3703 37.9728 10.8641C37.9484 10.3579 38.3389 9.92768 38.8451 9.90335L49.2828 9.39958C49.7891 9.37525 50.2192 9.76571 50.2436 10.272C50.2679 10.7779 49.8774 11.2081 49.3712 11.2327Z" fill="#407BFF"/>
<path d="M41.9961 15.4572L39.12 15.5961C38.6138 15.6204 38.1836 15.2299 38.1593 14.7237C38.135 14.2174 38.5254 13.7876 39.0313 13.7629L41.9074 13.6241C42.4137 13.5997 42.8439 13.9902 42.8682 14.4964C42.8928 15.0027 42.5024 15.4329 41.9961 15.4572Z" fill="#407BFF"/>
<path d="M47.5723 15.1882L44.6962 15.3271C44.19 15.3514 43.7598 14.9609 43.7355 14.4547C43.7111 13.9485 44.1016 13.5186 44.6078 13.494L47.4839 13.3551C47.9902 13.3308 48.4203 13.7212 48.4447 14.2275C48.469 14.7337 48.0785 15.1636 47.5723 15.1882Z" fill="#407BFF"/>
<path d="M49.7433 18.9524L39.3056 19.4561C38.7993 19.4805 38.3695 19.09 38.3448 18.5838C38.3205 18.0775 38.711 17.6473 39.2172 17.623L49.6549 17.1192C50.1611 17.0949 50.5913 17.4854 50.6156 17.9916C50.64 18.4979 50.2495 18.9277 49.7433 18.9524Z" fill="#407BFF"/>
<path d="M47.0781 22.9499L39.4931 23.3161C38.9868 23.3404 38.5567 22.9499 38.5323 22.4437C38.508 21.9374 38.8985 21.5073 39.4047 21.4829L46.9897 21.1168C47.4959 21.0925 47.9261 21.4829 47.9504 21.9892C47.9745 22.4954 47.584 22.9256 47.0781 22.9499Z" fill="#407BFF"/>
</g>
<path d="M26.9843 20.6566L26.7145 19.6431C26.3321 18.2063 24.9636 17.3167 23.415 17.4978L8.69863 19.2188C6.86273 19.4334 5.40929 21.0643 5.45209 22.8614L6.28721 57.9179C6.31646 59.1503 7.36097 60.0298 8.61979 59.8826L61.2729 53.7242C62.5317 53.577 63.5285 52.4586 63.4992 51.2263L62.7774 20.9214C62.7482 19.689 61.7037 18.8096 60.4448 18.9568L29.8699 22.5328C28.5156 22.6911 27.3187 21.9129 26.9843 20.6566Z" fill="#407BFF"/>
<path opacity="0.3" d="M26.9843 20.6566L26.7145 19.6431C26.3321 18.2063 24.9636 17.3167 23.415 17.4978L8.69863 19.2188C6.86273 19.4334 5.40929 21.0643 5.45209 22.8614L6.28721 57.9179C6.31646 59.1503 7.36097 60.0298 8.61979 59.8826L61.2729 53.7242C62.5317 53.577 63.5285 52.4586 63.4992 51.2263L62.7774 20.9214C62.7482 19.689 61.7037 18.8096 60.4448 18.9568L29.8699 22.5328C28.5156 22.6911 27.3187 21.9129 26.9843 20.6566Z" fill="#DFF2FF"/>
</svg>
