<svg width="20" height="21" viewBox="0 0 20 21" fill="none" xmlns="http://www.w3.org/2000/svg">
<path d="M6.66699 14.6669H13.3337" stroke="white" stroke-width="1.25" stroke-linecap="round" stroke-linejoin="round"/>
<path d="M6.66699 11.3335H10.0003" stroke="white" stroke-width="1.25" stroke-linecap="round" stroke-linejoin="round"/>
<path d="M10.834 2.58354V3.0002C10.834 5.35723 10.834 6.53574 11.5662 7.26797C12.2985 8.0002 13.477 8.0002 15.834 8.0002H16.2507M16.6673 9.38095V12.1669C16.6673 15.3095 16.6673 16.881 15.691 17.8572C14.7147 18.8335 13.1433 18.8335 10.0007 18.8335C6.85795 18.8335 5.28661 18.8335 4.31029 17.8572C3.33398 16.881 3.33398 15.3095 3.33398 12.1669V8.38007C3.33398 5.67589 3.33398 4.3238 4.07238 3.40798C4.22155 3.22296 4.39008 3.05444 4.57509 2.90526C5.49091 2.16687 6.843 2.16687 9.54715 2.16687C10.1352 2.16687 10.4291 2.16687 10.6983 2.26188C10.7543 2.28164 10.8092 2.30437 10.8627 2.33C11.1203 2.45316 11.3282 2.66104 11.7439 3.07677L15.691 7.0239C16.1727 7.50561 16.4136 7.74647 16.5405 8.05275C16.6673 8.35904 16.6673 8.69966 16.6673 9.38095Z" stroke="white" stroke-width="1.25" stroke-linecap="round" stroke-linejoin="round"/>
</svg>
